<?xml version="1.0" encoding="UTF-8" standalone="no"?>
<!-- Created with Inkscape (http://www.inkscape.org/) -->

<svg
   version="1.1"
   id="svg1"
   width="180.00011mm"
   height="179.99998mm"
   viewBox="0 0 180.00011 179.99998"
   xmlns="http://www.w3.org/2000/svg"
   xmlns:svg="http://www.w3.org/2000/svg">
  <defs
     id="defs1" />
  <g
     id="g1"
     transform="translate(-37.999943,-38)">
    <path
       style="fill:#b25510;fill-opacity:1;stroke-width:0.227379"
       d="m 125.91866,217.80814 c -12.51963,-0.95226 -25.00594,-4.7137 -35.769016,-11.73664 2.40396,-7.28481 5.45056,-11.90329 11.757976,-5.88023 23.73019,11.76045 53.69638,7.97521 73.74207,-10.33205 21.30242,-18.71197 31.15865,-52.36971 20.73118,-80.31864 -2.9276,-8.92746 -7.97353,-16.759824 -12.90046,-24.482677 3.21322,-1.666461 7.80692,-9.189339 10.37749,-2.85679 14.30475,20.378427 20.77879,47.758377 14.09054,72.664817 -8.9732,36.9121 -42.99042,64.38965 -78.40003,63.08981 -1.19008,-0.0262 -2.45157,-0.0809 -3.66545,-0.16427 z M 76.770774,212.5945 c -4.95073,-7.11817 1.19008,-15.64092 3.40362,-22.68767 4.04627,-3.6186 9.35403,-3.33292 9.87766,-10.83199 4.33189,-9.23696 9.80625,-20.6165 20.207546,-22.54483 3.99867,-9.07031 7.18808,-19.23572 13.82872,-26.83002 5.33156,-3.6424 8.85419,-18.52151 14.78078,-9.18933 2.38016,3.78524 9.87766,3.07105 5.09354,-0.47613 -4.85552,-1.66647 -12.47203,-7.07056 -7.37849,-10.97483 1.66611,-3.30912 -4.30809,-10.736773 2.14215,-6.78488 -4.4509,-3.76144 -7.02148,-11.712837 -9.18741,-15.426663 -2.14215,8.665594 6.99766,15.331433 2.14213,24.161293 -3.0704,9.07031 -11.47236,14.26014 -15.75665,22.64006 -5.59337,5.38028 -4.47469,16.97409 -11.47236,19.68803 -6.735846,1.66647 -13.424086,-0.23806 -18.255806,-5.54693 -5.73619,0.95227 -11.47237,-0.20235 -15.39963,-5.18983 -9.42543,-6.83249 -21.32622,0.47613 -26.73394,9.59405 -2.83239,3.02344 -6.85485,17.59306 -5.92659,5.80881 -0.13329,-18.30726 14.18574,-31.66275 28.68805,-38.27622 14.59037,-6.54681 30.46126,-9.87973 44.049586,-18.99765 4.09388,-2.999626 14.51897,-8.998884 14.20954,-11.927093 -8.47336,0.952263 -14.82838,7.451459 -23.34935,8.379915 -6.807246,0.952263 -13.162276,13.117418 -17.922586,1.66646 -4.56991,-3.832858 2.68958,-10.593926 7.04527,-8.522754 6.68824,-0.714197 14.447556,-13.141231 19.898116,-8.308496 -1.19007,3.928086 3.90346,-7.85617 7.66411,-6.523002 4.97454,-7.284812 15.63764,-15.212403 24.10149,-8.641787 -2.38016,-3.332921 5.52196,-7.2372 -0.002,-11.855676 -4.45089,-7.427652 2.73718,-17.259769 10.4965,-15.402856 5.26015,-1.190328 12.94806,13.784009 5.61717,11.117672 -3.80825,-0.07142 -10.87732,0.952263 -6.0694,6.665842 1.4281,6.880101 16.42309,-1.428395 6.30742,6.094484 -4.92693,1.904526 -5.998,14.593432 -1.4281,4.832735 1.4281,-6.403969 4.97453,2.809176 7.99734,-3.904278 3.26081,-3.190082 14.37615,-1.666462 4.30808,0.47613 -4.28428,1.19033 -12.0436,10.546314 -3.35602,4.332798 2.49916,-1.904527 11.63897,-6.380163 7.92593,0.714197 0.47603,-8.379915 11.63897,-9.022692 14.32855,-9.927343 2.14214,-7.308619 10.25848,-8.594174 16.08987,-11.236704 -4.14148,-9.165533 9.83005,-16.021827 13.11467,-5.308867 1.66611,8.141849 -11.06774,10.403475 -13.44789,18.378678 -6.47403,6.356356 -14.18575,9.451211 -19.99333,16.855057 -6.37883,3.047241 -10.37749,6.070677 -11.11534,14.18872 -3.28462,7.784748 -10.82972,14.117298 -10.75832,23.068578 5.52197,1.19033 -13.87632,8.83223 -4.30808,7.6181 6.0218,-4.83274 11.63897,3.92808 17.73218,6.47539 6.14081,5.26125 13.6145,11.42716 14.49516,20.42604 -2.45156,9.52264 -13.73351,10.33206 -21.25481,12.18897 -11.877,1.90453 -25.27014,1.42839 -34.64797,10.99864 -4.5937,6.99913 -14.01914,3.47576 -7.83072,-4.57086 5.21255,-3.83286 7.4023,-12.02233 12.75765,-14.35537 8.97319,3.66621 16.87532,-3.30911 24.51563,-7.33242 -6.42643,-0.14761 -15.114,-8.47515 -20.56457,-5.78501 -6.90246,7.2134 -13.66211,14.73628 -21.99266,20.04514 -6.16461,9.35599 -16.01847,14.90292 -22.944726,23.61613 -6.73585,6.8801 -10.4727,16.16467 -15.85186,24.13511 -1.42809,1.66646 -3.54643,4.18995 -5.90279,3.11866 z M 189.03332,148.8762 c -0.95206,-0.47613 -0.0905,0.71419 0,0 z M 84.565794,144.68624 c 10.42509,-7.33243 19.017466,-17.95017 27.943056,-26.73003 -11.40096,9.97496 -23.842046,19.14049 -37.880216,24.06369 2.73718,1.90453 6.59303,4.38041 9.94906,2.66634 z M 159.75024,129.7119 c -1.42811,-0.95227 -1.66612,1.66646 0,0 z m -6.78346,-3.59479 c 6.30742,-6.95153 -8.75898,-10.30825 -3.23702,-2.85679 7.16428,-1.90453 0.0595,5.0946 -2.52296,0.47612 0.0952,3.11867 3.71304,5.26126 5.73618,2.4997 z m -0.95206,-17.40261 c 0.95206,-2.73776 -3.52264,0.23807 -1.42809,1.42839 l 0.23801,0.05 z m 5.23635,0.95226 c 8.09254,-1.19033 -3.92727,-2.38066 -2.38016,0.19045 0.47603,1.19033 1.90413,-1.19032 2.38016,-0.19045 z m 10.09187,-9.760696 c 1.90412,-2.142592 4.59371,-11.665222 0.95206,-4.023311 -1.4281,2.475884 -9.59204,10.927217 -2.14214,5.332677 z m -14.61418,0.476136 c 0.71405,-3.309118 -5.95039,1.42839 -0.71404,0.71419 -0.23801,1.19033 0.47603,1.19033 0.71404,-0.71419 z m -5.68857,0.71419 c -0.47604,-0.47613 -0.47604,0.47613 0,0 z m 1.90412,-0.47613 c -1.66611,-0.47613 -0.23801,0.47613 0,0 z M 91.934764,95.83514 c -3.85586,-7.02294 -4.71272,0.238066 0,0 z m 50.804476,-1.66646 c -4.5223,-1.904527 -11.63898,-10.451088 -11.87699,-12.308001 0.22136,6.618228 6.28362,11.427157 11.87699,12.308001 z m 21.0644,-0.714198 c 6.14081,-1.190329 10.78212,-10.42728 8.75898,-14.950531 0.23802,7.094361 -8.63997,13.42691 -10.78211,15.498082 l 0.95206,-0.207117 z m -60.33701,-8.237076 c -0.21898,-0.714197 -1.19008,1.190329 0,0 z m 1.66611,-1.190328 c -0.47603,-0.476132 -0.47603,0.476131 0,0 z m 5.26015,-1.904527 c -0.47603,-0.476131 -0.47603,0.476132 0,0 z m 18.0178,-10.64154 c 2.68957,-1.190329 7.28328,-1.428394 4.30809,-2.142592 3.0942,-0.476132 14.42375,4.118539 5.90279,-0.476132 -5.75999,-3.880471 -15.44723,0.952264 -16.44689,5.951645 1.90412,-1.428394 4.04626,-2.523497 6.23601,-3.356727 z m 22.70671,3.118662 c -7.04527,-0.952263 5.45056,1.428395 0,0 z m -9.56824,-1.904526 c -1.19008,-0.238066 -0.47603,0.476132 0,0 z m 21.39762,-0.476132 c 1.19008,-1.190328 -2.38015,1.190329 0,0 z m 28.90465,-13.379296 c -0.47603,-0.476132 -0.47603,0.476132 0,0 z m -36.46879,-10.57012 c 2.80859,-3.856666 -8.87799,0.238065 -1.19008,0.476131 z m 4.92693,-0.476132 c -1.90413,-3.999505 -0.47603,2.952016 0,0 z m 51.21625,-0.952263 c -0.0833,-5.046995 -9.56824,-2.85679 -2.38016,-0.238067 -0.47603,-0.188071 2.14214,1.428396 2.38016,0.238067 z M 158.40544,44.22248 c -4.16528,-0.238066 -1.19008,0.714197 0,0 z m -6.25981,-0.238066 c -2.73719,-1.904526 0.47603,0.952263 0,0 z m 2.38016,0.0095 c -2.61818,-0.476131 -0.47604,0.476132 0,0 z m -3.83206,-1.904526 c -1.90413,-4.594669 0.71405,3.118662 0,0 z M 134.72287,197.00595 c -6.28362,-0.47613 -20.13614,-0.95226 -21.92126,-3.23769 17.44656,-0.95227 34.89788,-0.47613 52.34444,-0.23807 -7.40229,5.57074 -16.82772,2.9044 -25.2511,3.54718 -1.66611,-0.007 -3.45123,-0.005 -5.16494,-0.05 z m -62.686236,-6.30874 c -9.42542,-11.02245 -16.80391,-24.77788 -19.20787,-39.63081 1.66611,-6.97533 12.0674,-8.09423 10.5917,1.42839 2.64198,11.87949 9.21121,22.02109 16.18508,31.35327 -3.28462,1.42839 -3.87966,13.16504 -7.56891,6.78487 z M 149.03,186.48345 c -5.45057,-0.47614 -13.32889,-0.12142 -17.20854,-2.71395 15.0426,-1.19033 30.17802,-0.7142 45.26108,-0.7142 -6.42642,5.66596 -15.54242,3.09485 -23.20654,3.57099 -1.66611,-0.0452 -3.23701,-0.0976 -4.85552,-0.15713 z m 18.96986,-10.28444 c -5.64097,-0.47614 -13.32889,-0.95227 -17.80358,-2.38067 12.0198,-1.19032 24.22287,-1.90452 36.27123,-0.95226 -4.35569,5.54693 -12.61484,2.85679 -18.47003,3.21389 z M 52.221824,121.99143 c 3.45122,-38.009585 35.8071,-68.8272 70.702596,-70.969791 7.80692,-1.190329 15.23301,-1.904526 16.97053,7.713331 -2.9752,1.428394 -10.47269,1.666461 -14.97119,2.809176 -23.992,2.594917 -47.931636,17.259768 -57.875936,41.718644 -3.11801,4.21377 -1.66611,12.11755 -6.47403,14.35537 -2.14214,-0.12618 -8.33055,6.95152 -8.35436,4.38041 z M 157.48908,55.428236 c 3.11801,-2.594917 6.09321,-0.233304 0.47604,0.238066 l -0.47604,0.05238 z"
       id="path39" />
  </g>
</svg>
