<?xml version="1.0" encoding="UTF-8" standalone="no"?>
<!-- Created with Inkscape (http://www.inkscape.org/) -->

<svg
   version="1.1"
   id="svg1"
   width="1254.317"
   height="616.30994"
   viewBox="0 0 1254.3171 616.30996"
   sodipodi:docname="hero-image-generated-inkscape.svg"
   inkscape:version="1.4 (e7c3feb1, 2024-10-09)"
   xmlns:inkscape="http://www.inkscape.org/namespaces/inkscape"
   xmlns:sodipodi="http://sodipodi.sourceforge.net/DTD/sodipodi-0.dtd"
   xmlns="http://www.w3.org/2000/svg"
   xmlns:svg="http://www.w3.org/2000/svg">
  <defs
     id="defs1" />
  <sodipodi:namedview
     id="namedview1"
     pagecolor="#ffffff"
     bordercolor="#000000"
     borderopacity="0.25"
     inkscape:showpageshadow="2"
     inkscape:pageopacity="0.0"
     inkscape:pagecheckerboard="0"
     inkscape:deskcolor="#d1d1d1"
     inkscape:zoom="1.2187501"
     inkscape:cx="646.56407"
     inkscape:cy="606.35894"
     inkscape:window-width="2560"
     inkscape:window-height="1295"
     inkscape:window-x="1728"
     inkscape:window-y="25"
     inkscape:window-maximized="1"
     inkscape:current-layer="g1"
     showguides="false">
    <inkscape:page
       x="8.7367743e-16"
       y="0"
       width="1254.3171"
       height="616.30994"
       id="page2"
       margin="0"
       bleed="0" />
  </sodipodi:namedview>
  <g
     inkscape:groupmode="layer"
     inkscape:label="Image"
     id="g1"
     transform="translate(-3.6235357,-346.49007)">
    <path
       style="fill:#b25510;fill-opacity:1;stroke-width:0.805443"
       d="m 326.3003,962.19131 c -42.52095,-2.72619 -86.23084,-15.07321 -122.69589,-34.65875 -4.87292,-2.61728 -8.85988,-5.03151 -8.85988,-5.36497 0,-0.63056 12.88653,-24.46807 17.96642,-33.23429 0.1356,-0.2341 2.12154,0.81511 4.4131,2.33159 13.27273,8.78349 43.80463,21.17599 66.63727,27.04723 22.73285,5.84558 67.08236,8.26822 91.93949,5.0223 57.41594,-7.49758 93.84908,-23.77385 142.54684,-63.68189 8.28873,-6.79264 33.94803,-37.09755 41.23694,-48.70288 59.46311,-94.67637 54.88675,-196.449 -12.99435,-288.97937 -10.90045,-14.85867 -10.64585,-13.02975 -2.43901,-17.51982 3.6846,-2.01588 10.2984,-6.31851 14.69733,-9.56135 l 7.99803,-5.89612 5.35445,5.80264 c 21.97374,23.81302 49.34877,79.50771 58.54082,119.10165 C 673.27204,797.52277 518.60971,974.52112 326.3003,962.19131 Z M 145.53235,944.39349 c -9.78992,-4.71015 -8.72148,-34.52008 1.87485,-52.30878 2.3004,-3.8618 5.42811,-11.17586 6.95049,-16.25344 4.13346,-13.78633 11.13996,-19.22702 24.76045,-19.22702 4.35996,0 4.36181,-0.002 6.9274,-6.71205 21.02475,-54.98955 52.40115,-93.11663 79.10678,-96.12674 6.03763,-0.68053 5.84636,-0.39917 11.49061,-16.90381 12.09579,-35.36999 29.62397,-62.60338 62.35702,-96.88365 10.89519,-11.41016 14.90433,-16.35986 15.87482,-19.59911 1.61516,-5.3909 1.62883,-5.38985 7.44688,0.5741 5.93706,6.08594 16.29114,12.92179 26.59958,17.56128 9.06082,4.07797 8.68801,4.18303 9.05256,-2.55115 l 0.27945,-5.16218 -5.52659,-1.90498 c -17.42134,-6.00499 -32.10671,-17.21401 -34.65789,-26.45361 -1.35722,-4.91542 -1.01995,-5.30065 3.13408,-3.58001 6.14789,2.54655 6.4175,-25.71981 0.30969,-32.46886 -2.43283,-2.68825 0.80455,-2.56222 7.05657,0.27472 6.72251,3.05042 6.69542,2.83794 -0.58471,-4.58776 -10.25615,-10.46124 -19.26052,-25.5025 -23.94801,-40.0037 -3.32804,-10.29564 -3.80957,-10.41636 -5.27654,-1.32271 -1.8288,11.33666 0.67123,21.07732 8.25473,32.16224 6.7547,9.87344 6.76683,9.93219 4.97238,24.06841 -3.46225,27.27487 -7.9402,36.18342 -28.81095,57.31717 -28.79175,29.15464 -56.73902,74.34935 -61.19535,98.96163 -1.33478,7.37201 -12.0014,10.59212 -35.01837,10.57158 -18.53548,-0.0166 -20.58746,-0.73533 -36.28971,-12.71203 l -9.97857,-7.61103 -13.64779,0.62115 c -17.44809,0.79411 -22.47453,-0.83922 -33.37928,-10.84648 -33.22649,-30.49193 -78.824385,-18.30503 -111.034995,29.67623 -5.68525,8.46879 -16.8981104,30.39669 -16.8981104,33.04599 0,0.6187 -0.48327,1.12494 -1.07394,1.12494 -1.40846,0 -1.37655,-14.34215 0.0668,-30.0699 C 10.316105,686.16195 64.422245,637.73434 157.69405,610.15068 c 61.95211,-18.32134 109.23536,-40.66694 149.6583,-70.72702 23.42597,-17.42046 25.56378,-20.22882 11.96735,-15.72095 -5.02061,1.66458 -13.92785,3.8293 -19.79389,4.8105 -9.33708,1.56181 -11.20976,2.25056 -15.03495,5.52971 -7.04187,6.03666 -18.12505,10.75695 -32.29145,13.75283 -30.34491,6.41729 -33.6058,7.64584 -40.79176,15.36838 -14.1548,15.21177 -22.38056,15.76768 -32.61522,2.20415 -2.3673,-3.1373 -6.46132,-8.36938 -9.09781,-11.62683 l -4.79359,-5.92265 5.46039,-9.34416 c 6.62043,-11.3293 5.71722,-10.88437 22.25663,-10.96375 15.64902,-0.0751 15.96565,-0.217 35.12286,-15.74156 14.74299,-11.94737 20.71465,-14.71943 34.12382,-15.84035 12.66529,-1.05873 11.9436,-1.31046 9.19024,3.20575 -2.59281,4.25288 -3.09852,8.043 -0.59655,4.47096 0.88725,-1.26675 2.8339,-4.73354 4.32587,-7.70401 4.66811,-9.29397 12.26255,-15.19708 24.47138,-19.02144 5.93252,-1.85833 6.38889,-2.25655 9.06203,-7.9071 11.80312,-24.94971 59.75579,-38.96743 78.00657,-22.80319 1.95078,1.72776 1.98557,1.70391 0.80315,-0.55053 -0.67978,-1.29607 -1.71663,-2.65358 -2.30411,-3.01665 -1.63132,-1.00824 -1.27128,-3.75518 0.49221,-3.75518 9.61636,0 12.79772,-18.2003 4.95768,-28.36245 -14.02079,-18.17354 -6.55372,-45.21391 14.72313,-53.31674 23.92526,-9.11139 46.081,2.34193 52.18654,26.97765 2.69774,10.8853 2.51894,11.96502 -1.63794,9.8913 -2.36914,-1.18187 -3.89014,-1.36997 -5.06837,-0.62676 -1.24685,0.7865 -2.12502,0.51652 -3.38628,-1.04109 -1.68146,-2.07651 -1.78988,-2.06672 -8.62418,0.77934 -3.80671,1.58524 -9.97996,3.16153 -13.71834,3.50285 -5.60572,0.51178 -6.69835,0.92298 -6.23394,2.34607 8.83192,27.06301 13.82356,30.62386 34.78594,24.81489 9.37906,-2.59906 8.85189,-2.58791 8.85189,-0.18721 0,2.42577 -3.47976,5.6974 -9.12836,8.58234 -5.33738,2.72601 -17.86695,15.6481 -20.85842,21.51186 -2.53196,4.96304 -2.68169,6.35504 -1.12418,10.4516 l 1.1068,2.91106 2.62856,-2.46942 c 1.44572,-1.35818 4.88155,-6.86526 7.63517,-12.23797 2.75363,-5.37273 5.19956,-9.98903 5.4354,-10.25844 1.01224,-1.15638 7.96797,3.76199 8.53923,6.03807 0.61091,2.43409 0.7578,2.38012 5.7577,-2.11521 12.01546,-10.80293 28.37411,-15.7003 42.40762,-12.69579 3.05276,0.65359 -8.42464,5.53564 -16.8108,7.15066 -6.84542,1.3183 -34.16895,23.05366 -28.98078,23.05366 2.97946,0 12.72922,-4.87302 16.60378,-8.29871 4.95756,-4.38325 6.71116,-5.11072 21.50011,-8.91924 10.04715,-2.58738 11.51866,-2.75145 10.85675,-1.21047 -1.32996,3.09615 -3.68075,12.34762 -3.2476,12.78077 0.22838,0.22836 1.46486,-2.73894 2.74776,-6.59403 3.82313,-11.4885 16.11839,-21.19101 31.42781,-24.80051 7.37596,-1.73903 18.4356,-2.19687 16.01479,-0.66296 -1.01766,0.64481 -1.09802,1.14513 -0.26647,1.65906 1.1846,0.73211 1.57151,0.003 4.52908,-8.52178 3.46411,-9.98612 16.30485,-18.43516 42.28317,-27.82176 l 15.13846,-5.4699 -1.37029,-2.68482 c -2.82623,-5.5375 -1.81893,-19.05706 1.55136,-20.82233 1.62435,-0.85074 4.64476,-3.34232 6.71201,-5.5368 5.60305,-5.94776 12.68879,-10.1543 17.10438,-10.1543 4.58645,0 28.00044,22.80145 28.00044,27.26791 0,6.27134 -9.90309,16.82939 -20.40453,21.75393 -7.87717,3.69391 -8.99762,4.80863 -23.41208,23.29099 -18.24715,23.39669 -26.52847,29.95056 -44.36001,35.10694 -7.9628,2.30261 -8.26048,2.51281 -11.77811,8.31686 -8.99845,14.84739 -43.83161,39.98243 -55.40925,39.98243 -1.84128,0 -2.97652,2.90159 -4.62189,11.81317 -2.99118,16.20059 -11.9444,33.33138 -29.32714,56.11354 -8.47361,11.10567 -12.7368,19.76061 -16.31797,33.12793 -3.35563,12.52543 -3.4289,11.70745 1.04838,11.70745 4.32641,0 4.48385,0.43805 1.73679,4.83265 -1.55961,2.49495 -4.76883,4.38536 -14.2255,8.37955 -16.13292,6.81403 -15.38471,6.29505 -15.77565,10.94268 l -0.34232,4.06976 4.40001,-0.59017 c 2.42002,-0.32459 8.50307,-2.56737 13.51788,-4.98397 10.63126,-5.12307 11.22577,-5.22149 11.22577,-1.85823 0,2.78073 1.87988,3.91608 18.25671,11.02609 37.1207,16.11598 78.86853,57.83351 81.28262,81.22362 2.60418,25.23215 -31.56225,41.64504 -103.29808,49.62235 -59.86036,6.65671 -69.29381,9.67075 -98.80105,31.56748 -19.42656,14.41605 -25.33587,17.59638 -31.8298,17.13041 -16.57713,-1.18947 -5.7757,-32.12555 16.82005,-48.17386 7.7681,-5.51718 8.49355,-6.38576 12.45444,-14.91143 8.18269,-17.61296 9.25615,-18.13622 28.76099,-14.01955 18.29854,3.86207 20.66389,3.13114 67.0497,-20.71905 13.78494,-7.08781 13.78494,-7.08781 9.66531,-7.71618 -19.12349,-2.91681 -64.45937,-19.6853 -66.17224,-24.47528 -0.26934,-0.75323 -11.47155,9.48619 -25.59424,23.39451 -25.87268,25.47998 -35.23078,33.28586 -53.29205,44.4525 -9.53806,5.89703 -10.94963,7.20877 -15.63764,14.53165 -3.62689,5.6653 -7.60294,10.03434 -13.42407,14.7508 -61.02386,49.44358 -84.87034,75.28066 -107.39111,116.35569 -14.72347,26.85376 -28.11068,39.16387 -37.61679,34.59024 z M 558.44697,727.01734 c -0.39376,-0.39376 -1.03812,-0.39376 -1.43189,0 -0.39378,0.39378 -0.0716,0.71595 0.71596,0.71595 0.78754,0 1.10972,-0.32217 0.71593,-0.71595 z M 174.20781,712.76577 c 10.57698,-5.39597 37.94015,-28.3036 59.15032,-49.51889 7.40946,-7.41123 20.35828,-19.65571 28.77517,-27.20993 8.41689,-7.55423 15.30342,-13.93459 15.30342,-14.17858 0,-1.09576 -1.73495,0.16844 -13.42742,9.78421 -6.84019,5.62529 -16.1618,12.79973 -20.71466,15.9432 -4.55286,3.14347 -11.41917,7.90651 -15.25845,10.58456 -23.9573,16.71108 -65.98506,38.36466 -83.05747,42.79295 -9.67084,2.50845 -9.6618,2.39361 -0.55023,6.98242 14.92168,7.5149 22.19076,8.69145 29.77932,4.82006 z m 276.52667,-51.05916 c -0.46225,-1.20463 -1.10638,-1.32591 -2.65111,-0.49919 -2.74867,1.47104 -2.56777,2.0904 0.61061,2.0904 1.90076,0 2.47829,-0.45037 2.0405,-1.59121 z m -24.96982,-12.24346 c 11.80712,-11.80714 -2.75105,-34.90704 -14.84118,-23.54896 -8.08557,7.59599 4.16759,19.62742 13.40196,13.15943 3.92661,-2.75031 3.12057,1.93736 -0.91739,5.33505 -5.13326,4.31938 -15.53697,3.03386 -17.53248,-2.16637 -0.38082,-0.99237 -0.93616,-1.56054 -1.23412,-1.26258 -0.9119,0.9119 1.2975,5.60625 4.34085,9.22307 4.42485,5.25863 11.07727,4.96543 16.78236,-0.73964 z m -3.25785,-59.36913 c 2.93722,-5.75746 2.10845,-6.13838 -4.34514,-1.99713 -6.25013,4.0107 -6.39841,4.21293 -2.5498,3.47721 2.26417,-0.43281 2.72745,-0.19973 2.22185,1.11787 -1.93755,5.04914 1.84448,2.94657 4.67309,-2.59795 z m 19.24037,3.05001 c 5.76174,-0.64653 10.22383,-2.24422 11.34806,-4.06326 0.5902,-0.95498 0.24601,-1.10245 -1.23808,-0.53047 -7.75127,2.98733 -10.85328,3.18262 -15.33461,0.96543 -4.35619,-2.15528 -4.44069,-2.15742 -4.44069,-0.11334 0,3.38883 2.10492,6.53599 3.56515,5.33042 0.69713,-0.57557 3.44221,-1.29049 6.10017,-1.58875 z m 37.085,-33.27446 c 3.16916,-3.70245 7.8706,-13.88369 10.69509,-23.16085 1.26548,-4.15647 -1.32544,-1.68098 -4.22082,4.03279 -3.47049,6.84869 -10.31182,15.51342 -17.93771,22.71861 -3.46001,3.26913 -6.29091,6.75531 -6.29091,7.74708 0,2.57544 12.89218,-5.65728 17.75435,-11.33763 z m -53.71765,1.32742 c 0.98861,-5.85151 0.6499,-5.95681 -6.61556,-2.05642 -5.93188,3.18447 -6.05796,3.33227 -2.24573,2.63243 4.54593,-0.83452 7.50471,0.7771 6.45393,3.51542 -0.41055,1.06985 -0.22089,1.43985 0.50735,0.98977 0.63963,-0.39531 1.49464,-2.68186 1.90001,-5.0812 z m -20.95472,2.76281 c 0,-0.29533 -0.24163,-0.53696 -0.53695,-0.53696 -0.29533,0 -0.53696,0.24163 -0.53696,0.53696 0,0.29532 0.24163,0.53697 0.53696,0.53697 0.29532,0 0.53695,-0.24165 0.53695,-0.53697 z m 6.71204,-1.24819 c -0.73832,-0.29793 -1.94649,-0.29793 -2.68481,0 -0.73832,0.29791 -0.13427,0.54166 1.34241,0.54166 1.47664,0 2.08073,-0.24375 1.3424,-0.54166 z m -209.68377,-16.3246 c 0,-1.27929 -10.38435,-10.88622 -11.76715,-10.88622 -2.20425,0 2.0029,8.87593 5.04758,10.64901 2.31544,1.34842 6.71957,1.50388 6.71957,0.23721 z m 186.86288,-5.90041 c 0,-0.2111 -3.77321,-2.6119 -8.38488,-5.3351 -17.70925,-10.45739 -29.33252,-23.28442 -34.22994,-37.77502 l -1.45184,-4.2957 0.4633,6.82553 c 1.13707,16.75243 14.39921,31.3402 35.34813,38.8814 5.33506,1.92051 8.25523,2.52147 8.25523,1.69889 z m 77.47771,-2.65587 c 21.99887,-6.10011 37.23831,-28.53823 33.32337,-49.06439 -0.80427,-4.21683 -1.04603,-4.63514 -1.14068,-1.97374 -0.58569,16.46816 -17.58028,39.73158 -35.29114,48.30904 -10.98368,5.31949 -9.84345,6.32054 3.10845,2.72909 z M 243.6005,509.73891 c 0.37623,-0.60876 -0.0548,-0.7888 -1.01055,-0.42207 -1.86049,0.71395 -2.20089,1.48369 -0.65611,1.48369 0.55579,0 1.3058,-0.47773 1.66666,-1.06162 z m 5.91419,-3.77104 c 0,-0.29533 -0.24163,-0.53696 -0.53696,-0.53696 -0.29534,0 -0.53696,0.24163 -0.53696,0.53696 0,0.29534 0.24162,0.53697 0.53696,0.53697 0.29533,0 0.53696,-0.24163 0.53696,-0.53697 z m 19.33064,-6.44354 c 0,-0.29534 -0.24164,-0.53696 -0.53696,-0.53696 -0.29534,0 -0.53697,0.24162 -0.53697,0.53696 0,0.29533 0.24163,0.53696 0.53697,0.53696 0.29532,0 0.53696,-0.24163 0.53696,-0.53696 z m 66.28586,-36.34117 c 5.77485,-2.00073 12.91607,-4.03838 15.86937,-4.52815 l 5.36962,-0.89047 -4.2957,-0.71468 c -3.6674,-0.61015 -3.82448,-0.73385 -1.07392,-0.84581 5.52207,-0.22474 17.78785,1.91385 26.73369,4.66115 10.26323,3.15187 11.21045,2.80929 4.31808,-1.56173 -24.75816,-15.70116 -50.77169,-11.74018 -68.31924,10.40266 -5.65119,7.13113 -5.15923,7.40737 3.40987,1.91473 4.11868,-2.64001 12.21338,-6.43697 17.98823,-8.4377 z m 83.52661,10.61403 c -4.72527,-0.73576 -8.76522,-1.19572 -8.97764,-1.02211 -0.94996,0.77635 7.33869,2.39071 12.19942,2.37607 4.75713,-0.015 4.38964,-0.16878 -3.22178,-1.35396 z m -35.1934,-6.60246 c -0.35686,-0.35686 -1.28311,-0.39501 -2.05835,-0.0848 -0.85671,0.34283 -0.60223,0.59731 0.64882,0.64884 1.13211,0.0467 1.76638,-0.2072 1.40953,-0.56405 z m 78.68734,-1.49903 c 1.38825,-0.89715 1.3599,-1.0433 -0.2051,-1.05748 -0.9988,-0.008 -2.11466,0.46682 -2.47971,1.05748 -0.83999,1.35917 0.58168,1.35917 2.68481,0 z m 106.31854,-45.64179 c 0,-0.29533 -0.24164,-0.53696 -0.53696,-0.53696 -0.29534,0 -0.53697,0.24163 -0.53697,0.53696 0,0.29534 0.24163,0.53696 0.53697,0.53696 0.29532,0 0.53696,-0.24162 0.53696,-0.53696 z m -134.13787,-36.0496 c 5.09258,-3.62624 4.09899,-5.31348 -3.056,-5.18945 -7.7507,0.13444 -11.54468,1.16347 -11.54468,3.13144 0,4.13061 9.75831,5.50607 14.60068,2.05801 z m 18.15401,-1.57147 c 0,-2.56391 -2.56391,-4.74084 -3.95052,-3.35425 -0.62984,0.62984 2.45187,6.07278 3.43832,6.07278 0.28171,0 0.5122,-1.22334 0.5122,-2.71853 z m 188.3832,-3.33936 c 1.86694,-4.86508 -4.48986,-9.84762 -13.78807,-10.80729 -9.80176,-1.01163 -6.58949,4.87281 5.37055,9.83818 7.6658,3.18252 7.57229,3.17175 8.41752,0.96911 z m -195.37969,-8.91712 c -1.19011,-0.48281 -4.08969,-0.50775 -6.44353,-0.0553 -4.02293,0.77305 -3.89311,0.82573 2.16381,0.87783 4.34006,0.0374 5.73717,-0.23114 4.27972,-0.82241 z m -23.07339,-0.82589 c -0.88599,-0.328 -2.33578,-1.13557 -3.22177,-1.79458 -1.39982,-1.0412 -1.41777,-0.95195 -0.13694,0.68116 0.81065,1.03366 2.26044,1.84123 3.22178,1.79458 1.46208,-0.071 1.48449,-0.18228 0.13693,-0.68116 z m 8.33544,0.0281 c -1.02678,-0.26882 -2.95984,-0.27855 -4.29569,-0.0216 -1.33588,0.25687 -0.4958,0.47679 1.86683,0.48872 2.36264,0.0116 3.45562,-0.19825 2.42886,-0.46705 z m -14.0671,-6.51113 c -0.82012,-1.6243 -1.71058,-3.65439 -1.97881,-4.51129 -0.28126,-0.89852 -0.76716,-1.10581 -1.14793,-0.48971 -0.36312,0.58756 0.32076,2.61762 1.51974,4.51128 2.67088,4.21837 3.63847,4.51324 1.607,0.48972 z m -58.70382,528.49948 c -33.87712,-1.06836 -89.22786,-7.88755 -85.03849,-10.47673 2.70657,-1.67274 81.4493,-2.92829 138.56012,-2.20933 l 58.35429,0.7346 -7.87985,4.31722 c -13.69612,7.50387 -13.42339,7.46557 -55.13249,7.74133 -20.67306,0.13676 -42.66166,0.0886 -48.86358,-0.10702 z M 127.41528,869.88882 C 96.988965,839.09224 68.574435,787.88823 58.277415,745.29988 c -4.09475,-16.93585 -0.90771,-21.46657 20.38864,-28.98461 10.79031,-3.80919 9.79408,-4.86852 15.03004,15.98224 10.207125,40.64711 25.593745,70.22668 54.380945,104.54326 9.18269,10.94647 9.05194,10.11399 2.5382,16.1625 -5.19219,4.82132 -8.12014,9.78872 -13.50784,22.91671 -1.08125,2.63464 -1.20915,2.55505 -9.69212,-6.03116 z M 410.60337,855.55 c -26.08841,-0.86416 -34.82256,-1.68466 -52.82043,-4.96212 -13.55691,-2.46872 -15.29227,-4.23015 -5.09299,-5.16945 12.98596,-1.19595 87.92768,-2.33471 125.86617,-1.91256 l 35.19806,0.39166 -5.30004,4.21995 c -10.26678,8.17453 -30.06009,9.67798 -97.85077,7.43252 z m 69.8051,-35.09455 c -15.58959,-0.82349 -37.31809,-2.88783 -49.9375,-4.74437 -7.67856,-1.12964 -14.68591,-2.07082 -15.5719,-2.09151 -1.41352,-0.0331 -1.41031,-0.15505 0.0263,-0.99665 4.37682,-2.56405 114.74239,-5.91218 128.17335,-3.88837 l 5.2352,0.78886 -4.16127,4.33476 c -7.02697,7.31997 -21.57929,8.8256 -63.76409,6.59728 z M 54.564375,635.51907 c 0.2691,-2.14612 0.77399,-6.55999 1.12197,-9.8086 5.62541,-52.51787 40.85165,-117.61261 84.919765,-156.9237 48.41811,-43.19152 104.06451,-68.4165 164.41974,-74.53288 24.37607,-2.47027 60.30421,-3.34679 60.86982,-1.48502 0.25245,0.83096 1.22693,4.82632 2.1655,8.87858 1.11608,4.81869 3.16427,9.50338 5.92001,13.54055 l 4.21352,6.1728 -10.91833,0.70589 c -6.00508,0.38825 -15.02336,1.68911 -20.04063,2.89081 -5.01725,1.2017 -18.30433,3.38346 -29.52684,4.84834 C 205.01821,444.51547 123.7903,509.3249 96.359055,606.4146 l -2.87268,10.16751 -9.75919,4.76918 c -5.36756,2.62304 -14.23512,7.76182 -19.70566,11.41949 l -9.94645,6.6503 z M 441.74718,408.43893 c 0,-1.84947 4.87621,-3.66602 11.17477,-4.16297 6.54764,-0.5166 5.648,1.72268 -1.23383,3.07108 -3.40022,0.66622 -7.02792,1.55401 -8.06158,1.97286 -1.30262,0.52783 -1.87936,0.25747 -1.87936,-0.88097 z"
       id="path39" />
    <text
       xml:space="preserve"
       style="font-size:173.858px;font-family:'Devanagari MT';-inkscape-font-specification:'Devanagari MT, Normal';text-align:start;writing-mode:lr-tb;direction:ltr;text-anchor:start;fill:#b25510;stroke:#815454;stroke-width:0;stroke-linecap:square;stroke-linejoin:bevel;stroke-dasharray:none;stroke-opacity:0.490166;paint-order:stroke markers fill"
       x="728.38678"
       y="618.62"
       id="text2"><tspan
         sodipodi:role="line"
         x="728.38678"
         y="618.62"
         id="tspan3"
         style="font-size:173.858px;stroke:#815454;stroke-width:0;stroke-linecap:square;stroke-dasharray:none;stroke-opacity:0.490166;paint-order:stroke markers fill">Comic</tspan><tspan
         sodipodi:role="line"
         x="728.38678"
         y="872.77728"
         id="tspan4"
         style="font-size:173.858px;stroke:#815454;stroke-width:0;stroke-linecap:square;stroke-dasharray:none;stroke-opacity:0.490166;paint-order:stroke markers fill">Store</tspan></text>
  </g>
</svg>
